<?xml version="1.0" encoding="UTF-8"?>
<svg xmlns="http://www.w3.org/2000/svg" version="1.1" width="350" height="350" viewBox="0 0 350 350"><rect x="0" y="0" width="350" height="350" fill="#ffffff"/><g transform="scale(14)"><g transform="translate(2,2)"><defs><linearGradient gradientUnits="userSpaceOnUse" x1="0" y1="0" x2="0" y2="21" id="g1"><stop offset="0%" stop-color="#0a3c96"/><stop offset="100%" stop-color="#963c0a"/></linearGradient></defs><path fill-rule="evenodd" d="M10 0.25L10 0.75A0.25 0.25 0 0 0 10.25 1L10.75 1A0.25 0.25 0 0 0 11 0.75L11 0.25A0.25 0.25 0 0 0 10.75 0L10.25 0A0.25 0.25 0 0 0 10 0.25ZM10 2.25L10 3.75A0.25 0.25 0 0 1 9.75 4L8.25 4A0.25 0.25 0 0 0 8 4.25L8 4.75A0.25 0.25 0 0 0 8.25 5L8.75 5A0.25 0.25 0 0 1 9 5.25L9 5.75A0.25 0.25 0 0 1 8.75 6L8.25 6A0.25 0.25 0 0 0 8 6.25L8 7.75A0.25 0.25 0 0 1 7.75 8L6.25 8A0.25 0.25 0 0 0 6 8.25L6 8.75A0.25 0.25 0 0 0 6.25 9L8.75 9A0.25 0.25 0 0 1 9 9.25L9 11.75A0.25 0.25 0 0 1 8.75 12L6.25 12A0.25 0.25 0 0 1 6 11.75L6 11.25A0.25 0.25 0 0 1 6.25 11L6.75 11A0.25 0.25 0 0 0 7 10.75L7 10.25A0.25 0.25 0 0 0 6.75 10L6.25 10A0.25 0.25 0 0 0 6 10.25L6 10.75A0.25 0.25 0 0 1 5.75 11L5.25 11A0.25 0.25 0 0 1 5 10.75L5 9.25A0.25 0.25 0 0 0 4.75 9L4.25 9A0.25 0.25 0 0 1 4 8.75L4 8.25A0.25 0.25 0 0 0 3.75 8L2.25 8A0.25 0.25 0 0 0 2 8.25L2 8.75A0.25 0.25 0 0 0 2.25 9L3.75 9A0.25 0.25 0 0 1 4 9.25L4 9.75A0.25 0.25 0 0 1 3.75 10L2.25 10A0.25 0.25 0 0 0 2 10.25L2 10.75A0.25 0.25 0 0 1 1.75 11L1.25 11A0.25 0.25 0 0 1 1 10.75L1 9.25A0.25 0.25 0 0 0 0.75 9L0.25 9A0.25 0.25 0 0 0 0 9.25L0 11.75A0.25 0.25 0 0 0 0.25 12L1.75 12A0.25 0.25 0 0 0 2 11.75L2 11.25A0.25 0.25 0 0 1 2.25 11L2.75 11A0.25 0.25 0 0 1 3 11.25L3 12.75A0.25 0.25 0 0 0 3.25 13L7.75 13A0.25 0.25 0 0 1 8 13.25L8 14.75A0.25 0.25 0 0 0 8.25 15L8.75 15A0.25 0.25 0 0 1 9 15.25L9 15.75A0.25 0.25 0 0 0 9.25 16L9.75 16A0.25 0.25 0 0 1 10 16.25L10 17.75A0.25 0.25 0 0 1 9.75 18L9.25 18A0.25 0.25 0 0 1 9 17.75L9 17.25A0.25 0.25 0 0 0 8.75 17L8.25 17A0.25 0.25 0 0 0 8 17.25L8 18.75A0.25 0.25 0 0 0 8.25 19L8.75 19A0.25 0.25 0 0 1 9 19.25L9 19.75A0.25 0.25 0 0 0 9.25 20L10.75 20A0.25 0.25 0 0 1 11 20.25L11 20.75A0.25 0.25 0 0 0 11.25 21L12.75 21A0.25 0.25 0 0 0 13 20.75L13 19.25A0.25 0.25 0 0 1 13.25 19L13.75 19A0.25 0.25 0 0 1 14 19.25L14 19.75A0.25 0.25 0 0 0 14.25 20L14.75 20A0.25 0.25 0 0 1 15 20.25L15 20.75A0.25 0.25 0 0 0 15.25 21L15.75 21A0.25 0.25 0 0 0 16 20.75L16 20.25A0.25 0.25 0 0 1 16.25 20L16.75 20A0.25 0.25 0 0 1 17 20.25L17 20.75A0.25 0.25 0 0 0 17.25 21L17.75 21A0.25 0.25 0 0 0 18 20.75L18 19.25A0.25 0.25 0 0 1 18.25 19L18.75 19A0.25 0.25 0 0 1 19 19.25L19 20.75A0.25 0.25 0 0 0 19.25 21L19.75 21A0.25 0.25 0 0 0 20 20.75L20 20.25A0.25 0.25 0 0 1 20.25 20L20.75 20A0.25 0.25 0 0 0 21 19.75L21 19.25A0.25 0.25 0 0 0 20.75 19L19.25 19A0.25 0.25 0 0 1 19 18.75L19 18.25A0.25 0.25 0 0 1 19.25 18L19.75 18A0.25 0.25 0 0 0 20 17.75L20 17.25A0.25 0.25 0 0 1 20.25 17L20.75 17A0.25 0.25 0 0 0 21 16.75L21 16.25A0.25 0.25 0 0 0 20.75 16L20.25 16A0.25 0.25 0 0 0 20 16.25L20 16.75A0.25 0.25 0 0 1 19.75 17L19.25 17A0.25 0.25 0 0 0 19 17.25L19 17.75A0.25 0.25 0 0 1 18.75 18L17.25 18A0.25 0.25 0 0 1 17 17.75L17 17.25A0.25 0.25 0 0 1 17.25 17L17.75 17A0.25 0.25 0 0 0 18 16.75L18 15.25A0.25 0.25 0 0 1 18.25 15L20.75 15A0.25 0.25 0 0 0 21 14.75L21 12.25A0.25 0.25 0 0 0 20.75 12L20.25 12A0.25 0.25 0 0 1 20 11.75L20 11.25A0.25 0.25 0 0 0 19.75 11L19.25 11A0.25 0.25 0 0 0 19 11.25L19 11.75A0.25 0.25 0 0 1 18.75 12L18.25 12A0.25 0.25 0 0 0 18 12.25L18 14.75A0.25 0.25 0 0 1 17.75 15L17.25 15A0.25 0.25 0 0 1 17 14.75L17 14.25A0.25 0.25 0 0 0 16.75 14L16.25 14A0.25 0.25 0 0 1 16 13.75L16 13.25A0.25 0.25 0 0 1 16.25 13L16.75 13A0.25 0.25 0 0 0 17 12.75L17 12.25A0.25 0.25 0 0 0 16.75 12L16.25 12A0.25 0.25 0 0 0 16 12.25L16 12.75A0.25 0.25 0 0 1 15.75 13L15.25 13A0.25 0.25 0 0 1 15 12.75L15 12.25A0.25 0.25 0 0 0 14.75 12L12.25 12A0.25 0.25 0 0 1 12 11.75L12 11.25A0.25 0.25 0 0 1 12.25 11L12.75 11A0.25 0.25 0 0 0 13 10.75L13 10.25A0.25 0.25 0 0 1 13.25 10L13.75 10A0.25 0.25 0 0 1 14 10.25L14 10.75A0.25 0.25 0 0 0 14.25 11L17.75 11A0.25 0.25 0 0 0 18 10.75L18 10.25A0.25 0.25 0 0 1 18.25 10L18.75 10A0.25 0.25 0 0 0 19 9.75L19 9.25A0.25 0.25 0 0 0 18.75 9L18.25 9A0.25 0.25 0 0 0 18 9.25L18 9.75A0.25 0.25 0 0 1 17.75 10L16.25 10A0.25 0.25 0 0 1 16 9.75L16 9.25A0.25 0.25 0 0 1 16.25 9L16.75 9A0.25 0.25 0 0 0 17 8.75L17 8.25A0.25 0.25 0 0 0 16.75 8L16.25 8A0.25 0.25 0 0 0 16 8.25L16 8.75A0.25 0.25 0 0 1 15.75 9L15.25 9A0.25 0.25 0 0 1 15 8.75L15 8.25A0.25 0.25 0 0 0 14.75 8L13.25 8A0.25 0.25 0 0 1 13 7.75L13 6.25A0.25 0.25 0 0 0 12.75 6L12.25 6A0.25 0.25 0 0 0 12 6.25L12 6.75A0.25 0.25 0 0 1 11.75 7L11.25 7A0.25 0.25 0 0 1 11 6.75L11 4.25A0.25 0.25 0 0 1 11.25 4L11.75 4A0.25 0.25 0 0 1 12 4.25L12 4.75A0.25 0.25 0 0 0 12.25 5L12.75 5A0.25 0.25 0 0 0 13 4.75L13 3.25A0.25 0.25 0 0 0 12.75 3L11.25 3A0.25 0.25 0 0 1 11 2.75L11 2.25A0.25 0.25 0 0 0 10.75 2L10.25 2A0.25 0.25 0 0 0 10 2.25ZM9 6.25L9 6.75A0.25 0.25 0 0 0 9.25 7L9.75 7A0.25 0.25 0 0 0 10 6.75L10 6.25A0.25 0.25 0 0 0 9.75 6L9.25 6A0.25 0.25 0 0 0 9 6.25ZM9 8.25L9 8.75A0.25 0.25 0 0 0 9.25 9L9.75 9A0.25 0.25 0 0 1 10 9.25L10 12.75A0.25 0.25 0 0 1 9.75 13L9.25 13A0.25 0.25 0 0 0 9 13.25L9 13.75A0.25 0.25 0 0 0 9.25 14L9.75 14A0.25 0.25 0 0 0 10 13.75L10 13.25A0.25 0.25 0 0 1 10.25 13L10.75 13A0.25 0.25 0 0 1 11 13.25L11 15.75A0.25 0.25 0 0 0 11.25 16L11.75 16A0.25 0.25 0 0 1 12 16.25L12 16.75A0.25 0.25 0 0 1 11.75 17L11.25 17A0.25 0.25 0 0 0 11 17.25L11 17.75A0.25 0.25 0 0 1 10.75 18L10.25 18A0.25 0.25 0 0 0 10 18.25L10 18.75A0.25 0.25 0 0 0 10.25 19L10.75 19A0.25 0.25 0 0 1 11 19.25L11 19.75A0.25 0.25 0 0 0 11.25 20L11.75 20A0.25 0.25 0 0 0 12 19.75L12 19.25A0.25 0.25 0 0 1 12.25 19L12.75 19A0.25 0.25 0 0 0 13 18.75L13 18.25A0.25 0.25 0 0 0 12.75 18L12.25 18A0.25 0.25 0 0 1 12 17.75L12 17.25A0.25 0.25 0 0 1 12.25 17L12.75 17A0.25 0.25 0 0 0 13 16.75L13 16.25A0.25 0.25 0 0 0 12.75 16L12.25 16A0.25 0.25 0 0 1 12 15.75L12 15.25A0.25 0.25 0 0 1 12.25 15L12.75 15A0.25 0.25 0 0 0 13 14.75L13 13.25A0.25 0.25 0 0 0 12.75 13L12.25 13A0.25 0.25 0 0 1 12 12.75L12 12.25A0.25 0.25 0 0 0 11.75 12L11.25 12A0.25 0.25 0 0 1 11 11.75L11 11.25A0.25 0.25 0 0 1 11.25 11L11.75 11A0.25 0.25 0 0 0 12 10.75L12 9.25A0.25 0.25 0 0 0 11.75 9L11.25 9A0.25 0.25 0 0 1 11 8.75L11 8.25A0.25 0.25 0 0 0 10.75 8L9.25 8A0.25 0.25 0 0 0 9 8.25ZM4 11.25L4 11.75A0.25 0.25 0 0 0 4.25 12L4.75 12A0.25 0.25 0 0 0 5 11.75L5 11.25A0.25 0.25 0 0 0 4.75 11L4.25 11A0.25 0.25 0 0 0 4 11.25ZM19 12.25L19 13.75A0.25 0.25 0 0 0 19.25 14L19.75 14A0.25 0.25 0 0 0 20 13.75L20 12.25A0.25 0.25 0 0 0 19.75 12L19.25 12A0.25 0.25 0 0 0 19 12.25ZM14 14.25L14 15.75A0.25 0.25 0 0 0 14.25 16L14.75 16A0.25 0.25 0 0 1 15 16.25L15 19.75A0.25 0.25 0 0 0 15.25 20L15.75 20A0.25 0.25 0 0 0 16 19.75L16 17.25A0.25 0.25 0 0 1 16.25 17L16.75 17A0.25 0.25 0 0 0 17 16.75L17 15.25A0.25 0.25 0 0 0 16.75 15L16.25 15A0.25 0.25 0 0 1 16 14.75L16 14.25A0.25 0.25 0 0 0 15.75 14L14.25 14A0.25 0.25 0 0 0 14 14.25ZM0 0L7 0L7 7L0 7ZM1 1L1 6L6 6L6 1ZM5 3.5A1.5 1.5 0 0 1 3.5 5A1.5 1.5 0 0 1 2 3.5A1.5 1.5 0 0 1 3.5 2A1.5 1.5 0 0 1 5 3.5ZM14 0L21 0L21 7L14 7ZM15 1L15 6L20 6L20 1ZM19 3.5A1.5 1.5 0 0 1 17.5 5A1.5 1.5 0 0 1 16 3.5A1.5 1.5 0 0 1 17.5 2A1.5 1.5 0 0 1 19 3.5ZM0 14L7 14L7 21L0 21ZM1 15L1 20L6 20L6 15ZM5 17.5A1.5 1.5 0 0 1 3.5 19A1.5 1.5 0 0 1 2 17.5A1.5 1.5 0 0 1 3.5 16A1.5 1.5 0 0 1 5 17.5Z" fill="url(#g1)"/></g></g></svg>
