<?xml version="1.0" encoding="UTF-8"?>
<svg xmlns="http://www.w3.org/2000/svg" version="1.1" width="350" height="350" viewBox="0 0 350 350"><rect x="0" y="0" width="350" height="350" fill="#ffffff"/><g transform="scale(14)"><g transform="translate(2,2)"><defs><linearGradient gradientUnits="userSpaceOnUse" x1="0" y1="0" x2="0" y2="21" id="g1"><stop offset="0%" stop-color="#0a3c96"/><stop offset="100%" stop-color="#963c0a"/></linearGradient></defs><path fill-rule="evenodd" d="M9 0.25L9 0.75A0.25 0.25 0 0 0 9.25 1L9.75 1A0.25 0.25 0 0 1 10 1.25L10 1.75A0.25 0.25 0 0 0 10.25 2L10.75 2A0.25 0.25 0 0 1 11 2.25L11 4.75A0.25 0.25 0 0 0 11.25 5L11.75 5A0.25 0.25 0 0 1 12 5.25L12 7.75A0.25 0.25 0 0 0 12.25 8L12.75 8A0.25 0.25 0 0 0 13 7.75L13 4.25A0.25 0.25 0 0 0 12.75 4L12.25 4A0.25 0.25 0 0 1 12 3.75L12 2.25A0.25 0.25 0 0 1 12.25 2L12.75 2A0.25 0.25 0 0 0 13 1.75L13 0.25A0.25 0.25 0 0 0 12.75 0L11.25 0A0.25 0.25 0 0 0 11 0.25L11 0.75A0.25 0.25 0 0 1 10.75 1L10.25 1A0.25 0.25 0 0 1 10 0.75L10 0.25A0.25 0.25 0 0 0 9.75 0L9.25 0A0.25 0.25 0 0 0 9 0.25ZM8 2.25L8 3.75A0.25 0.25 0 0 0 8.25 4L9.75 4A0.25 0.25 0 0 0 10 3.75L10 3.25A0.25 0.25 0 0 0 9.75 3L9.25 3A0.25 0.25 0 0 1 9 2.75L9 2.25A0.25 0.25 0 0 0 8.75 2L8.25 2A0.25 0.25 0 0 0 8 2.25ZM9 5.25L9 5.75A0.25 0.25 0 0 1 8.75 6L8.25 6A0.25 0.25 0 0 0 8 6.25L8 6.75A0.25 0.25 0 0 0 8.25 7L8.75 7A0.25 0.25 0 0 0 9 6.75L9 6.25A0.25 0.25 0 0 1 9.25 6L9.75 6A0.25 0.25 0 0 1 10 6.25L10 7.75A0.25 0.25 0 0 1 9.75 8L9.25 8A0.25 0.25 0 0 0 9 8.25L9 9.75A0.25 0.25 0 0 1 8.75 10L8.25 10A0.25 0.25 0 0 1 8 9.75L8 8.25A0.25 0.25 0 0 0 7.75 8L6.25 8A0.25 0.25 0 0 0 6 8.25L6 8.75A0.25 0.25 0 0 0 6.25 9L6.75 9A0.25 0.25 0 0 1 7 9.25L7 9.75A0.25 0.25 0 0 1 6.75 10L6.25 10A0.25 0.25 0 0 0 6 10.25L6 10.75A0.25 0.25 0 0 1 5.75 11L5.25 11A0.25 0.25 0 0 0 5 11.25L5 11.75A0.25 0.25 0 0 1 4.75 12L4.25 12A0.25 0.25 0 0 1 4 11.75L4 11.25A0.25 0.25 0 0 0 3.75 11L2.25 11A0.25 0.25 0 0 0 2 11.25L2 11.75A0.25 0.25 0 0 1 1.75 12L1.25 12A0.25 0.25 0 0 1 1 11.75L1 11.25A0.25 0.25 0 0 0 0.75 11L0.25 11A0.25 0.25 0 0 0 0 11.25L0 11.75A0.25 0.25 0 0 0 0.25 12L0.75 12A0.25 0.25 0 0 1 1 12.25L1 12.75A0.25 0.25 0 0 0 1.25 13L2.75 13A0.25 0.25 0 0 0 3 12.75L3 12.25A0.25 0.25 0 0 1 3.25 12L3.75 12A0.25 0.25 0 0 1 4 12.25L4 12.75A0.25 0.25 0 0 0 4.25 13L4.75 13A0.25 0.25 0 0 0 5 12.75L5 12.25A0.25 0.25 0 0 1 5.25 12L5.75 12A0.25 0.25 0 0 1 6 12.25L6 12.75A0.25 0.25 0 0 0 6.25 13L7.75 13A0.25 0.25 0 0 1 8 13.25L8 14.75A0.25 0.25 0 0 0 8.25 15L11.75 15A0.25 0.25 0 0 1 12 15.25L12 17.75A0.25 0.25 0 0 0 12.25 18L13.75 18A0.25 0.25 0 0 1 14 18.25L14 18.75A0.25 0.25 0 0 1 13.75 19L13.25 19A0.25 0.25 0 0 0 13 19.25L13 19.75A0.25 0.25 0 0 1 12.75 20L12.25 20A0.25 0.25 0 0 1 12 19.75L12 19.25A0.25 0.25 0 0 0 11.75 19L11.25 19A0.25 0.25 0 0 1 11 18.75L11 18.25A0.25 0.25 0 0 0 10.75 18L9.25 18A0.25 0.25 0 0 1 9 17.75L9 16.25A0.25 0.25 0 0 0 8.75 16L8.25 16A0.25 0.25 0 0 0 8 16.25L8 17.75A0.25 0.25 0 0 0 8.25 18L8.75 18A0.25 0.25 0 0 1 9 18.25L9 18.75A0.25 0.25 0 0 0 9.25 19L9.75 19A0.25 0.25 0 0 1 10 19.25L10 19.75A0.25 0.25 0 0 0 10.25 20L10.75 20A0.25 0.25 0 0 1 11 20.25L11 20.75A0.25 0.25 0 0 0 11.25 21L13.75 21A0.25 0.25 0 0 0 14 20.75L14 19.25A0.25 0.25 0 0 1 14.25 19L14.75 19A0.25 0.25 0 0 0 15 18.75L15 18.25A0.25 0.25 0 0 0 14.75 18L14.25 18A0.25 0.25 0 0 1 14 17.75L14 17.25A0.25 0.25 0 0 1 14.25 17L15.75 17A0.25 0.25 0 0 1 16 17.25L16 17.75A0.25 0.25 0 0 0 16.25 18L17.75 18A0.25 0.25 0 0 1 18 18.25L18 19.75A0.25 0.25 0 0 1 17.75 20L17.25 20A0.25 0.25 0 0 1 17 19.75L17 19.25A0.25 0.25 0 0 0 16.75 19L16.25 19A0.25 0.25 0 0 0 16 19.25L16 19.75A0.25 0.25 0 0 0 16.25 20L16.75 20A0.25 0.25 0 0 1 17 20.25L17 20.75A0.25 0.25 0 0 0 17.25 21L19.75 21A0.25 0.25 0 0 0 20 20.75L20 20.25A0.25 0.25 0 0 1 20.25 20L20.75 20A0.25 0.25 0 0 0 21 19.75L21 18.25A0.25 0.25 0 0 0 20.75 18L19.25 18A0.25 0.25 0 0 1 19 17.75L19 16.25A0.25 0.25 0 0 0 18.75 16L18.25 16A0.25 0.25 0 0 1 18 15.75L18 15.25A0.25 0.25 0 0 0 17.75 15L17.25 15A0.25 0.25 0 0 1 17 14.75L17 14.25A0.25 0.25 0 0 1 17.25 14L17.75 14A0.25 0.25 0 0 0 18 13.75L18 13.25A0.25 0.25 0 0 1 18.25 13L18.75 13A0.25 0.25 0 0 1 19 13.25L19 14.75A0.25 0.25 0 0 0 19.25 15L19.75 15A0.25 0.25 0 0 1 20 15.25L20 16.75A0.25 0.25 0 0 0 20.25 17L20.75 17A0.25 0.25 0 0 0 21 16.75L21 14.25A0.25 0.25 0 0 0 20.75 14L20.25 14A0.25 0.25 0 0 1 20 13.75L20 12.25A0.25 0.25 0 0 1 20.25 12L20.75 12A0.25 0.25 0 0 0 21 11.75L21 9.25A0.25 0.25 0 0 0 20.75 9L20.25 9A0.25 0.25 0 0 0 20 9.25L20 10.75A0.25 0.25 0 0 1 19.75 11L19.25 11A0.25 0.25 0 0 1 19 10.75L19 8.25A0.25 0.25 0 0 0 18.75 8L17.25 8A0.25 0.25 0 0 0 17 8.25L17 8.75A0.25 0.25 0 0 1 16.75 9L16.25 9A0.25 0.25 0 0 0 16 9.25L16 10.75A0.25 0.25 0 0 0 16.25 11L16.75 11A0.25 0.25 0 0 1 17 11.25L17 13.75A0.25 0.25 0 0 1 16.75 14L16.25 14A0.25 0.25 0 0 1 16 13.75L16 13.25A0.25 0.25 0 0 0 15.75 13L15.25 13A0.25 0.25 0 0 1 15 12.75L15 11.25A0.25 0.25 0 0 0 14.75 11L14.25 11A0.25 0.25 0 0 0 14 11.25L14 11.75A0.25 0.25 0 0 1 13.75 12L13.25 12A0.25 0.25 0 0 1 13 11.75L13 11.25A0.25 0.25 0 0 0 12.75 11L12.25 11A0.25 0.25 0 0 1 12 10.75L12 9.25A0.25 0.25 0 0 0 11.75 9L11.25 9A0.25 0.25 0 0 0 11 9.25L11 10.75A0.25 0.25 0 0 1 10.75 11L9.25 11A0.25 0.25 0 0 1 9 10.75L9 10.25A0.25 0.25 0 0 1 9.25 10L9.75 10A0.25 0.25 0 0 0 10 9.75L10 8.25A0.25 0.25 0 0 1 10.25 8L10.75 8A0.25 0.25 0 0 0 11 7.75L11 6.25A0.25 0.25 0 0 0 10.75 6L10.25 6A0.25 0.25 0 0 1 10 5.75L10 5.25A0.25 0.25 0 0 0 9.75 5L9.25 5A0.25 0.25 0 0 0 9 5.25ZM3 8.25L3 8.75A0.25 0.25 0 0 1 2.75 9L0.25 9A0.25 0.25 0 0 0 0 9.25L0 9.75A0.25 0.25 0 0 0 0.25 10L2.75 10A0.25 0.25 0 0 0 3 9.75L3 9.25A0.25 0.25 0 0 1 3.25 9L3.75 9A0.25 0.25 0 0 1 4 9.25L4 9.75A0.25 0.25 0 0 0 4.25 10L4.75 10A0.25 0.25 0 0 0 5 9.75L5 8.25A0.25 0.25 0 0 0 4.75 8L3.25 8A0.25 0.25 0 0 0 3 8.25ZM17 9.25L17 9.75A0.25 0.25 0 0 0 17.25 10L17.75 10A0.25 0.25 0 0 0 18 9.75L18 9.25A0.25 0.25 0 0 0 17.75 9L17.25 9A0.25 0.25 0 0 0 17 9.25ZM7 10.25L7 10.75A0.25 0.25 0 0 1 6.75 11L6.25 11A0.25 0.25 0 0 0 6 11.25L6 11.75A0.25 0.25 0 0 0 6.25 12L7.75 12A0.25 0.25 0 0 1 8 12.25L8 12.75A0.25 0.25 0 0 0 8.25 13L9.75 13A0.25 0.25 0 0 1 10 13.25L10 13.75A0.25 0.25 0 0 0 10.25 14L10.75 14A0.25 0.25 0 0 0 11 13.75L11 13.25A0.25 0.25 0 0 1 11.25 13L12.75 13A0.25 0.25 0 0 1 13 13.25L13 13.75A0.25 0.25 0 0 0 13.25 14L13.75 14A0.25 0.25 0 0 1 14 14.25L14 15.75A0.25 0.25 0 0 0 14.25 16L14.75 16A0.25 0.25 0 0 0 15 15.75L15 14.25A0.25 0.25 0 0 0 14.75 14L14.25 14A0.25 0.25 0 0 1 14 13.75L14 13.25A0.25 0.25 0 0 0 13.75 13L13.25 13A0.25 0.25 0 0 1 13 12.75L13 12.25A0.25 0.25 0 0 0 12.75 12L12.25 12A0.25 0.25 0 0 1 12 11.75L12 11.25A0.25 0.25 0 0 0 11.75 11L11.25 11A0.25 0.25 0 0 0 11 11.25L11 11.75A0.25 0.25 0 0 1 10.75 12L8.25 12A0.25 0.25 0 0 1 8 11.75L8 10.25A0.25 0.25 0 0 0 7.75 10L7.25 10A0.25 0.25 0 0 0 7 10.25ZM16 16.25L16 16.75A0.25 0.25 0 0 0 16.25 17L16.75 17A0.25 0.25 0 0 0 17 16.75L17 16.25A0.25 0.25 0 0 0 16.75 16L16.25 16A0.25 0.25 0 0 0 16 16.25ZM19 19.25L19 19.75A0.25 0.25 0 0 0 19.25 20L19.75 20A0.25 0.25 0 0 0 20 19.75L20 19.25A0.25 0.25 0 0 0 19.75 19L19.25 19A0.25 0.25 0 0 0 19 19.25ZM0 0L7 0L7 7L0 7ZM1 1L1 6L6 6L6 1ZM5 3.5A1.5 1.5 0 0 1 3.5 5A1.5 1.5 0 0 1 2 3.5A1.5 1.5 0 0 1 3.5 2A1.5 1.5 0 0 1 5 3.5ZM14 0L21 0L21 7L14 7ZM15 1L15 6L20 6L20 1ZM19 3.5A1.5 1.5 0 0 1 17.5 5A1.5 1.5 0 0 1 16 3.5A1.5 1.5 0 0 1 17.5 2A1.5 1.5 0 0 1 19 3.5ZM0 14L7 14L7 21L0 21ZM1 15L1 20L6 20L6 15ZM5 17.5A1.5 1.5 0 0 1 3.5 19A1.5 1.5 0 0 1 2 17.5A1.5 1.5 0 0 1 3.5 16A1.5 1.5 0 0 1 5 17.5Z" fill="url(#g1)"/></g></g></svg>
